<svg width="640" height="400" viewBox="0 0 640 400" fill="none" xmlns="http://www.w3.org/2000/svg">
  <rect width="640" height="400" rx="24" fill="#F8FAFC" />
  <rect x="32" y="32" width="576" height="336" rx="20" fill="#FFFFFF" stroke="#E2E8F0" />
  <rect x="64" y="64" width="220" height="12" rx="6" fill="#0F172A" />
  <rect x="64" y="88" width="160" height="10" rx="5" fill="#94A3B8" />
  <rect x="64" y="140" width="512" height="96" rx="16" fill="#F1F5F9" />
  <rect x="84" y="160" width="160" height="12" rx="6" fill="#0F172A" />
  <rect x="84" y="182" width="120" height="10" rx="5" fill="#94A3B8" />
  <rect x="84" y="206" width="200" height="10" rx="5" fill="#CBD5F5" />
  <rect x="64" y="264" width="248" height="72" rx="16" fill="#F8FAFC" stroke="#E2E8F0" />
  <rect x="328" y="264" width="248" height="72" rx="16" fill="#F8FAFC" stroke="#E2E8F0" />
  <rect x="84" y="286" width="140" height="10" rx="5" fill="#0F172A" />
  <rect x="84" y="304" width="90" height="8" rx="4" fill="#94A3B8" />
  <rect x="348" y="286" width="120" height="10" rx="5" fill="#0F172A" />
  <rect x="348" y="304" width="90" height="8" rx="4" fill="#94A3B8" />
  <circle cx="548" cy="86" r="10" fill="#38BDF8" />
</svg>
