<svg width="640" height="400" viewBox="0 0 640 400" fill="none" xmlns="http://www.w3.org/2000/svg">
  <rect width="640" height="400" rx="24" fill="#F8FAFC" />
  <rect x="32" y="32" width="576" height="336" rx="20" fill="#FFFFFF" stroke="#E2E8F0" />
  <rect x="64" y="64" width="200" height="12" rx="6" fill="#0F172A" />
  <rect x="64" y="88" width="140" height="10" rx="5" fill="#94A3B8" />
  <rect x="64" y="132" width="512" height="88" rx="16" fill="#F1F5F9" />
  <rect x="84" y="154" width="120" height="10" rx="5" fill="#0F172A" />
  <rect x="84" y="174" width="180" height="10" rx="5" fill="#94A3B8" />
  <rect x="84" y="194" width="140" height="8" rx="4" fill="#CBD5F5" />
  <rect x="64" y="244" width="160" height="92" rx="16" fill="#F8FAFC" stroke="#E2E8F0" />
  <rect x="240" y="244" width="160" height="92" rx="16" fill="#F8FAFC" stroke="#E2E8F0" />
  <rect x="416" y="244" width="160" height="92" rx="16" fill="#F8FAFC" stroke="#E2E8F0" />
  <rect x="84" y="268" width="100" height="10" rx="5" fill="#0F172A" />
  <rect x="84" y="286" width="80" height="8" rx="4" fill="#94A3B8" />
  <rect x="260" y="268" width="100" height="10" rx="5" fill="#0F172A" />
  <rect x="260" y="286" width="90" height="8" rx="4" fill="#94A3B8" />
  <rect x="436" y="268" width="110" height="10" rx="5" fill="#0F172A" />
  <rect x="436" y="286" width="90" height="8" rx="4" fill="#94A3B8" />
  <circle cx="548" cy="86" r="10" fill="#0EA5E9" />
</svg>
